<svg width="28" height="28" viewBox="0 0 28 28" fill="none" xmlns="http://www.w3.org/2000/svg">
<rect width="28" height="28" rx="14" fill="url(#paint0_linear_13_20)" fill-opacity="0.14"/>
<path d="M14 10.0625C14.116 10.0625 14.2273 10.1086 14.3094 10.1906C14.3914 10.2727 14.4375 10.384 14.4375 10.5V13.5625H17.5C17.616 13.5625 17.7273 13.6086 17.8094 13.6906C17.8914 13.7727 17.9375 13.884 17.9375 14C17.9375 14.116 17.8914 14.2273 17.8094 14.3094C17.7273 14.3914 17.616 14.4375 17.5 14.4375H14.4375V17.5C14.4375 17.616 14.3914 17.7273 14.3094 17.8094C14.2273 17.8914 14.116 17.9375 14 17.9375C13.884 17.9375 13.7727 17.8914 13.6906 17.8094C13.6086 17.7273 13.5625 17.616 13.5625 17.5V14.4375H10.5C10.384 14.4375 10.2727 14.3914 10.1906 14.3094C10.1086 14.2273 10.0625 14.116 10.0625 14C10.0625 13.884 10.1086 13.7727 10.1906 13.6906C10.2727 13.6086 10.384 13.5625 10.5 13.5625H13.5625V10.5C13.5625 10.384 13.6086 10.2727 13.6906 10.1906C13.7727 10.1086 13.884 10.0625 14 10.0625Z" fill="white"/>
<defs>
<linearGradient id="paint0_linear_13_20" x1="-2" y1="-8.5" x2="66.5" y2="65" gradientUnits="userSpaceOnUse">
<stop stop-color="#D9D9D9"/>
<stop offset="1" stop-color="#737373"/>
</linearGradient>
</defs>
</svg>
